<svg xmlns="http://www.w3.org/2000/svg"><symbol fill="none" id="icon-add-game" viewBox="0 0 15 15"><path fill="currentColor" d="M7 0h1v15H7z"/><path fill="currentColor" d="M0 7h15v1H0z"/></symbol><symbol fill="none" id="icon-digital" viewBox="0 0 15 11"><path d="M0 5h1v4.8h13V5h1v6H0V5Z" fill="currentColor"/><path d="M7.146 8.054a.5.5 0 0 0 .708 0l3.182-3.182a.5.5 0 1 0-.708-.708L7.5 6.993 4.672 4.164a.5.5 0 1 0-.708.708l3.182 3.182ZM7 0v4.95h1V0H7Zm0 4.95V7.7h1V4.95H7Z" fill="currentColor"/></symbol><symbol fill="none" id="icon-dropdown-select" viewBox="0 0 8 5"><path d="m0 1 1-1 4 4-1 1-4-4Z" fill="currentColor"/><path d="m7 0 1 1-4 4-1-1 4-4Z" fill="currentColor"/></symbol><symbol fill="none" id="icon-edit-close" viewBox="0 0 12 12"><path d="m1 0 11 11-1 1L0 1l1-1Z" fill="currentColor"/><path d="M0 11 11 0l1 1L1 12l-1-1Z" fill="currentColor"/></symbol><symbol fill="none" id="icon-edit-game" viewBox="0 0 16 13"><path fill="currentColor" d="M0 0h16v1H0zm0 6h16v1H0zm0 6h16v1H0z"/></symbol><symbol fill="none" id="icon-physic" viewBox="0 0 14 14"><rect x=".5" y=".5" width="13" height="13" rx="6.5" stroke="currentColor"/><rect x="5.5" y="5.5" width="3" height="3" rx="1.5" stroke="currentColor"/></symbol></svg>