<svg width="15" height="11" viewBox="0 0 15 11" fill="none" xmlns="http://www.w3.org/2000/svg">
<path d="M0 5H1V9.8H14V5H15V11H0V5Z" fill="currentColor"/>
<path d="M7.14645 8.05355C7.34171 8.24882 7.65829 8.24882 7.85355 8.05355L11.0355 4.87157C11.2308 4.67631 11.2308 4.35973 11.0355 4.16447C10.8403 3.9692 10.5237 3.9692 10.3284 4.16447L7.5 6.99289L4.67157 4.16447C4.47631 3.9692 4.15973 3.9692 3.96447 4.16447C3.7692 4.35973 3.7692 4.67631 3.96447 4.87157L7.14645 8.05355ZM7 0V4.95H8V0L7 0ZM7 4.95L7 7.7H8V4.95H7Z" fill="currentColor"/>
</svg>
