<svg width="13" height="13" viewBox="0 0 13 13" fill="none" xmlns="http://www.w3.org/2000/svg"><path d="M6.5 0A6.52 6.52 0 0 0 0 6.5C0 10.07 2.92 13 6.5 13c3.57 0 6.5-2.93 6.5-6.5C13 2.92 10.07 0 6.5 0Zm0 8.36A1.86 1.86 0 0 1 4.64 6.5a1.86 1.86 0 0 1 3.71 0c0 1.02-.83 1.86-1.85 1.86Z" fill="currentColor"/><path d="M6.5 4.97c-.84 0-1.53.7-1.53 1.53 0 .84.7 1.53 1.53 1.53.84 0 1.53-.7 1.53-1.53 0-.84-.7-1.53-1.53-1.53Zm0 2.6c-.6 0-1.07-.47-1.07-1.07 0-.6.47-1.07 1.07-1.07.6 0 1.07.47 1.07 1.07 0 .6-.47 1.07-1.07 1.07Z" fill="currentColor"/></svg>
