<svg width="18" height="18" viewBox="0 0 18 18" fill="none" xmlns="http://www.w3.org/2000/svg"><g clip-path="url(#a)" fill="currentColor"><path d="m17.08 7.11-1.26-.21c-.14-.43-.3-.84-.51-1.23l.74-1.04a1.1 1.1 0 0 0-.12-1.43l-1.12-1.12a1.1 1.1 0 0 0-1.43-.12l-1.04.74c-.4-.21-.83-.39-1.27-.52L10.86.93A1.11 1.11 0 0 0 9.76 0H8.17c-.54 0-1 .4-1.1.93l-.21 1.28c-.42.13-.83.3-1.22.51L4.6 1.98a1.1 1.1 0 0 0-1.43.12L2.05 3.22c-.39.38-.44.99-.12 1.43l.75 1.06c-.21.4-.38.8-.5 1.23l-1.25.2c-.54.1-.93.56-.93 1.1v1.59c0 .55.4 1 .93 1.1l1.28.22c.13.42.3.83.51 1.22l-.74 1.03a1.1 1.1 0 0 0 .12 1.43l1.12 1.12a1.1 1.1 0 0 0 1.43.12l1.06-.75c.38.2.78.36 1.19.49l.2 1.26c.1.54.56.93 1.1.93h1.6c.54 0 1-.39 1.09-.93l.21-1.26c.43-.13.84-.3 1.23-.5l1.04.74a1.1 1.1 0 0 0 1.43-.12l1.12-1.13c.39-.38.44-.98.12-1.43l-.74-1.04c.2-.4.38-.8.5-1.23l1.27-.21c.54-.09.93-.55.93-1.1V8.21c0-.55-.38-1-.92-1.1Zm-.09 2.68a.1.1 0 0 1-.08.1l-1.58.26a.5.5 0 0 0-.4.38 6.02 6.02 0 0 1-.66 1.57.5.5 0 0 0 .02.55l.93 1.31a.1.1 0 0 1-.01.13l-1.12 1.12a.1.1 0 0 1-.07.03.1.1 0 0 1-.06-.02l-1.3-.93a.5.5 0 0 0-.56-.02c-.49.3-1.02.51-1.57.66a.5.5 0 0 0-.37.4l-.27 1.58a.1.1 0 0 1-.1.08H8.21a.1.1 0 0 1-.1-.08l-.26-1.58a.5.5 0 0 0-.37-.4 6.25 6.25 0 0 1-1.55-.64.52.52 0 0 0-.25-.06.5.5 0 0 0-.3.09l-1.31.94a.11.11 0 0 1-.06.01.1.1 0 0 1-.07-.03l-1.12-1.12a.1.1 0 0 1-.01-.12l.92-1.3a.51.51 0 0 0 .03-.56 5.96 5.96 0 0 1-.67-1.57.51.51 0 0 0-.4-.37l-1.6-.27a.1.1 0 0 1-.07-.1V8.25a.1.1 0 0 1 .08-.1l1.57-.26a.5.5 0 0 0 .4-.38c.14-.55.36-1.09.65-1.58a.5.5 0 0 0-.03-.55l-.93-1.31a.1.1 0 0 1 0-.13L3.9 2.82a.1.1 0 0 1 .07-.03.1.1 0 0 1 .06.02l1.3.92c.16.12.38.13.55.02.49-.29 1.02-.52 1.57-.66.2-.05.34-.2.37-.4l.27-1.6a.1.1 0 0 1 .1-.08h1.59a.1.1 0 0 1 .1.09l.26 1.56c.03.2.18.36.37.41.57.15 1.11.37 1.62.66.17.1.38.1.55-.02l1.3-.93a.11.11 0 0 1 .05-.02.1.1 0 0 1 .07.03l1.12 1.12a.1.1 0 0 1 .01.13l-.92 1.3a.5.5 0 0 0-.03.56c.3.49.52 1.02.66 1.57.05.2.2.34.4.37l1.58.27a.1.1 0 0 1 .09.1v1.58Z"/><path d="M9 5.11a3.89 3.89 0 1 0 0 7.78A3.89 3.89 0 0 0 9 5.1Zm0 6.76a2.87 2.87 0 1 1 0-5.74 2.87 2.87 0 0 1 0 5.74Z"/></g><defs><clipPath id="a"><path fill="#fff" d="M0 0h18v18H0z"/></clipPath></defs></svg>
